# xmcd CD database file
#
# Track frame offsets:
#	150
#	26937
#	49205
#	78437
#	97785
#	112035
#	131497
#	151310
#	166252
#	189450
#	205722
#	227867
#
# Disc length: 3334 seconds
#
# Revision: 2
# Processed by: cddbd v1.4PL0 Copyright (c) Steve Scherf et al.
# Submitted via: CDex 1.50
#
DISCID=970d040c
DTITLE=Mark May and The Agitators - Call On The Blues
DYEAR=1995
DGENRE=Blues
TTITLE0=You're Leaving Baby
TTITLE1=Wound Up
TTITLE2=You Can Call On The Blues
TTITLE3=All For You
TTITLE4=Short and Stout
TTITLE5=Hail To The Iceman
TTITLE6=If You Love Me Like You Say
TTITLE7=Laugh To Keep From Cryin
TTITLE8=Down For The Count
TTITLE9=She Ain't Coming Home
TTITLE10=Big City Crime
TTITLE11=Sweet Shuffle Queen
EXTD=YEAR: 1995
EXTT0=
EXTT1=
EXTT2=
EXTT3=
EXTT4=
EXTT5=
EXTT6=
EXTT7=
EXTT8=
EXTT9=
EXTT10=
EXTT11=
PLAYORDER=
